<?xml version="1.0" encoding="UTF-8" standalone="no"?>
<!DOCTYPE svg PUBLIC "-//W3C//DTD SVG 1.1//EN" "http://www.w3.org/Graphics/SVG/1.1/DTD/svg11.dtd">
<svg width="100%" height="100%" viewBox="0 0 112 92" version="1.1" xmlns="http://www.w3.org/2000/svg" xmlns:xlink="http://www.w3.org/1999/xlink" xml:space="preserve" xmlns:serif="http://www.serif.com/" style="fill-rule:evenodd;clip-rule:evenodd;stroke-linejoin:round;stroke-miterlimit:1.41421;">
    <g transform="matrix(0.96,0,0,0.96,0,0)">
        <g transform="matrix(0.375966,0,0,0.462496,-48.1434,-20.655)">
            <path d="M406.454,93.711C406.454,84.764 397.519,77.501 386.514,77.501L178.13,77.501C167.125,77.501 158.19,84.764 158.19,93.711L158.19,239.597L406.454,239.597L406.454,93.711Z" style="fill:rgb(155,64,0);"/>
        </g>
        <g transform="matrix(0.324105,0,0,0.324105,-41.6512,-14.5573)">
            <rect x="240.787" y="140.756" width="133.356" height="133.356" style="fill:rgb(43,43,43);"/>
        </g>
        <g transform="matrix(0.324105,0,0,0.324105,-39.9896,-57.9917)">
            <rect x="180.258" y="245.353" width="17.895" height="35.832" style="fill:rgb(86,86,86);"/>
        </g>
        <g transform="matrix(0.324105,0,0,0.324105,33.549,-57.9917)">
            <rect x="180.258" y="245.353" width="17.895" height="35.832" style="fill:rgb(86,86,86);"/>
        </g>
        <g transform="matrix(0.324105,0,0,0.324105,-40.0346,-10.2124)">
            <path d="M206.811,269.44C206.811,264.619 202.898,260.706 198.078,260.706L180.611,260.706C175.791,260.706 171.877,264.619 171.877,269.44L171.877,286.906C171.877,291.727 175.791,295.64 180.611,295.64L198.078,295.64C202.898,295.64 206.811,291.727 206.811,286.906L206.811,269.44Z" style="fill:rgb(216,216,216);"/>
        </g>
        <g transform="matrix(0.324105,0,0,0.324105,33.5039,-10.2124)">
            <path d="M206.811,269.44C206.811,264.619 202.898,260.706 198.078,260.706L180.611,260.706C175.791,260.706 171.877,264.619 171.877,269.44L171.877,286.906C171.877,291.727 175.791,295.64 180.611,295.64L198.078,295.64C202.898,295.64 206.811,291.727 206.811,286.906L206.811,269.44Z" style="fill:rgb(216,216,216);"/>
        </g>
        <g transform="matrix(0.324105,0,0,0.324105,-39.2316,-10.2124)">
            <rect x="443.995" y="149.946" width="22.219" height="159.737" style="fill:rgb(87,87,87);"/>
        </g>
        <g transform="matrix(0.324105,0,0,0.324105,-139.772,-10.2124)">
            <rect x="443.995" y="149.946" width="22.219" height="159.737" style="fill:rgb(87,87,87);"/>
        </g>
    </g>
</svg>
